# xmcd
#
# Track frame offsets:
#	150
#	16752
#	32431
#	46180
# Disc length: 820 seconds
# Revision: 1
# Processed by: cddbd v1.5.1PL2 Copyright (c) Steve Scherf et al.
#
# Submitted via: libkcddb 0.21
#
DISCID=1e033204
DTITLE=Jonah's Road - Why Does She Love Me
DYEAR=2006
DGENRE=Country
TTITLE0=Why Does She Love Me
TTITLE1=Honey Candy
TTITLE2=It Ain't Love
TTITLE3=Last Day (Live)
EXTD=YEAR: 2006
EXTT0=
EXTT1=
EXTT2=
EXTT3=
PLAYORDER=
